<mxfile host="app.diagrams.net" agent="Mozilla/5.0 (Windows NT 10.0; Win64; x64) AppleWebKit/537.36 (KHTML, like Gecko) Chrome/132.0.0.0 Safari/537.36" version="26.0.11">
  <diagram name="Page-1" id="rvJXUBArVy-_Kcro2miK">
    <mxGraphModel dx="2647" dy="3440" grid="1" gridSize="10" guides="1" tooltips="1" connect="1" arrows="1" fold="1" page="1" pageScale="1" pageWidth="1600" pageHeight="900" math="0" shadow="0">
      <root>
        <mxCell id="0" />
        <mxCell id="1" parent="0" />
        <mxCell id="tGdVXJUMrKSxFYN3gTCC-39" style="edgeStyle=orthogonalEdgeStyle;rounded=0;orthogonalLoop=1;jettySize=auto;html=1;" parent="1" source="tGdVXJUMrKSxFYN3gTCC-20" target="tGdVXJUMrKSxFYN3gTCC-13" edge="1">
          <mxGeometry relative="1" as="geometry">
            <mxPoint x="1820" y="-409.5" as="targetPoint" />
          </mxGeometry>
        </mxCell>
        <mxCell id="tGdVXJUMrKSxFYN3gTCC-20" value="&lt;font style=&quot;font-size: 24px;&quot;&gt;&lt;b&gt;GLUE WORKFLOW&lt;/b&gt;&lt;/font&gt;" style="fillColor=#EFF0F3;strokeColor=none;dashed=0;verticalAlign=top;fontStyle=0;fontColor=#232F3D;whiteSpace=wrap;html=1;" parent="1" vertex="1">
          <mxGeometry x="1090" y="-580" width="650" height="340" as="geometry" />
        </mxCell>
        <mxCell id="tGdVXJUMrKSxFYN3gTCC-36" value="" style="edgeStyle=orthogonalEdgeStyle;rounded=0;orthogonalLoop=1;jettySize=auto;html=1;" parent="1" source="YWBN4F0ZfOO1UBI8A1HG-11" target="YWBN4F0ZfOO1UBI8A1HG-8" edge="1">
          <mxGeometry relative="1" as="geometry">
            <mxPoint x="1433" y="-436.5" as="targetPoint" />
          </mxGeometry>
        </mxCell>
        <mxCell id="FjuNGTuPouY_meC3UHuL-16" value="" style="edgeStyle=orthogonalEdgeStyle;rounded=0;orthogonalLoop=1;jettySize=auto;html=1;" edge="1" parent="1" source="YWBN4F0ZfOO1UBI8A1HG-11" target="YWBN4F0ZfOO1UBI8A1HG-13">
          <mxGeometry relative="1" as="geometry" />
        </mxCell>
        <mxCell id="YWBN4F0ZfOO1UBI8A1HG-11" value="" style="sketch=0;outlineConnect=0;fontColor=#232F3E;gradientColor=none;strokeColor=#ffffff;fillColor=#232F3E;dashed=0;verticalLabelPosition=middle;verticalAlign=bottom;align=center;html=1;whiteSpace=wrap;fontSize=10;fontStyle=1;spacing=3;shape=mxgraph.aws4.productIcon;prIcon=mxgraph.aws4.glue;" parent="1" vertex="1">
          <mxGeometry x="1192" y="-501.5" width="134" height="130" as="geometry" />
        </mxCell>
        <mxCell id="YWBN4F0ZfOO1UBI8A1HG-8" value="" style="sketch=0;outlineConnect=0;fontColor=#232F3E;gradientColor=none;fillColor=#8C4FFF;strokeColor=none;dashed=0;verticalLabelPosition=bottom;verticalAlign=top;align=center;html=1;fontSize=12;fontStyle=0;aspect=fixed;pointerEvents=1;shape=mxgraph.aws4.glue_crawlers;" parent="1" vertex="1">
          <mxGeometry x="1476" y="-501.5" width="130" height="130" as="geometry" />
        </mxCell>
        <mxCell id="FjuNGTuPouY_meC3UHuL-21" value="" style="edgeStyle=orthogonalEdgeStyle;rounded=0;orthogonalLoop=1;jettySize=auto;html=1;entryX=1;entryY=0.5;entryDx=0;entryDy=0;entryPerimeter=0;" edge="1" parent="1" source="YWBN4F0ZfOO1UBI8A1HG-9" target="FjuNGTuPouY_meC3UHuL-15">
          <mxGeometry relative="1" as="geometry">
            <mxPoint x="1556" y="-230.50000000000045" as="targetPoint" />
            <Array as="points">
              <mxPoint x="1550" y="4" />
            </Array>
          </mxGeometry>
        </mxCell>
        <mxCell id="YWBN4F0ZfOO1UBI8A1HG-9" value="&lt;font style=&quot;font-size: 24px;&quot;&gt;&lt;b&gt;GLUE CRAWLER&lt;/b&gt;&lt;/font&gt;" style="text;strokeColor=none;align=center;fillColor=none;html=1;verticalAlign=middle;whiteSpace=wrap;rounded=0;" parent="1" vertex="1">
          <mxGeometry x="1526" y="-355.5" width="60" height="50" as="geometry" />
        </mxCell>
        <mxCell id="FjuNGTuPouY_meC3UHuL-18" value="" style="edgeStyle=orthogonalEdgeStyle;rounded=0;orthogonalLoop=1;jettySize=auto;html=1;" edge="1" parent="1" source="YWBN4F0ZfOO1UBI8A1HG-13" target="FjuNGTuPouY_meC3UHuL-15">
          <mxGeometry relative="1" as="geometry">
            <mxPoint x="1260" y="-263.00000000000045" as="targetPoint" />
          </mxGeometry>
        </mxCell>
        <mxCell id="YWBN4F0ZfOO1UBI8A1HG-13" value="&lt;font style=&quot;font-size: 24px;&quot;&gt;&lt;b&gt;ETL GLUE JOB&lt;/b&gt;&lt;/font&gt;" style="text;strokeColor=none;align=center;fillColor=none;html=1;verticalAlign=middle;whiteSpace=wrap;rounded=0;" parent="1" vertex="1">
          <mxGeometry x="1190" y="-346.75" width="140" height="22.5" as="geometry" />
        </mxCell>
        <mxCell id="tGdVXJUMrKSxFYN3gTCC-41" value="" style="edgeStyle=orthogonalEdgeStyle;rounded=0;orthogonalLoop=1;jettySize=auto;html=1;" parent="1" source="tGdVXJUMrKSxFYN3gTCC-13" edge="1">
          <mxGeometry relative="1" as="geometry">
            <mxPoint x="2210" y="-411.5" as="targetPoint" />
          </mxGeometry>
        </mxCell>
        <mxCell id="tGdVXJUMrKSxFYN3gTCC-13" value="" style="sketch=0;outlineConnect=0;fontColor=#232F3E;gradientColor=none;fillColor=#8C4FFF;strokeColor=none;dashed=0;verticalLabelPosition=bottom;verticalAlign=top;align=center;html=1;fontSize=12;fontStyle=0;aspect=fixed;pointerEvents=1;shape=mxgraph.aws4.glue_data_catalog;" parent="1" vertex="1">
          <mxGeometry x="1880" y="-483.78999999999996" width="136.23" height="147.58" as="geometry" />
        </mxCell>
        <mxCell id="tGdVXJUMrKSxFYN3gTCC-64" value="" style="edgeStyle=orthogonalEdgeStyle;rounded=0;orthogonalLoop=1;jettySize=auto;html=1;entryX=0.47;entryY=0.008;entryDx=0;entryDy=0;entryPerimeter=0;" parent="1" source="tGdVXJUMrKSxFYN3gTCC-26" target="tGdVXJUMrKSxFYN3gTCC-20" edge="1">
          <mxGeometry relative="1" as="geometry">
            <mxPoint x="1395" y="-945" as="targetPoint" />
          </mxGeometry>
        </mxCell>
        <mxCell id="YWBN4F0ZfOO1UBI8A1HG-10" value="" style="sketch=0;outlineConnect=0;fontColor=#232F3E;gradientColor=none;fillColor=#E7157B;strokeColor=none;dashed=0;verticalLabelPosition=bottom;verticalAlign=top;align=center;html=1;fontSize=12;fontStyle=0;aspect=fixed;pointerEvents=1;shape=mxgraph.aws4.eventbridge_scheduler;" parent="1" vertex="1">
          <mxGeometry x="1320" y="-1180" width="130" height="130" as="geometry" />
        </mxCell>
        <mxCell id="YWBN4F0ZfOO1UBI8A1HG-17" value="" style="outlineConnect=0;dashed=0;verticalLabelPosition=bottom;verticalAlign=top;align=center;html=1;shape=mxgraph.aws3.athena;fillColor=#F58534;gradientColor=none;" parent="1" vertex="1">
          <mxGeometry x="2230" y="-508.25" width="130" height="150" as="geometry" />
        </mxCell>
        <mxCell id="YWBN4F0ZfOO1UBI8A1HG-16" value="&lt;font style=&quot;font-size: 24px;&quot;&gt;&lt;b&gt;TARGET ATHENA TABLES&lt;/b&gt;&lt;/font&gt;" style="text;strokeColor=none;align=center;fillColor=none;html=1;verticalAlign=middle;whiteSpace=wrap;rounded=0;" parent="1" vertex="1">
          <mxGeometry x="2160" y="-353.5" width="270" height="70" as="geometry" />
        </mxCell>
        <mxCell id="tGdVXJUMrKSxFYN3gTCC-65" value="" style="edgeStyle=orthogonalEdgeStyle;rounded=0;orthogonalLoop=1;jettySize=auto;html=1;entryX=0.47;entryY=0.008;entryDx=0;entryDy=0;entryPerimeter=0;" parent="1" source="YWBN4F0ZfOO1UBI8A1HG-10" target="tGdVXJUMrKSxFYN3gTCC-26" edge="1">
          <mxGeometry relative="1" as="geometry">
            <mxPoint x="1395" y="-1061" as="sourcePoint" />
            <mxPoint x="1395" y="-577" as="targetPoint" />
          </mxGeometry>
        </mxCell>
        <mxCell id="tGdVXJUMrKSxFYN3gTCC-26" value="&lt;font style=&quot;font-size: 24px;&quot;&gt;&lt;b&gt;EVENT BRIDGE TO SCHEDULE&amp;nbsp; ETL&lt;/b&gt;&lt;/font&gt;" style="text;strokeColor=none;align=center;fillColor=none;html=1;verticalAlign=middle;whiteSpace=wrap;rounded=0;" parent="1" vertex="1">
          <mxGeometry x="1295" y="-1030" width="200" height="120" as="geometry" />
        </mxCell>
        <mxCell id="tGdVXJUMrKSxFYN3gTCC-66" value="AWS Cloud" style="points=[[0,0],[0.25,0],[0.5,0],[0.75,0],[1,0],[1,0.25],[1,0.5],[1,0.75],[1,1],[0.75,1],[0.5,1],[0.25,1],[0,1],[0,0.75],[0,0.5],[0,0.25]];outlineConnect=0;gradientColor=none;html=1;whiteSpace=wrap;fontSize=12;fontStyle=0;container=1;pointerEvents=0;collapsible=0;recursiveResize=0;shape=mxgraph.aws4.group;grIcon=mxgraph.aws4.group_aws_cloud_alt;strokeColor=#232F3E;fillColor=none;verticalAlign=top;align=left;spacingLeft=30;fontColor=#232F3E;dashed=0;" parent="1" vertex="1">
          <mxGeometry x="460" y="-1410" width="2170" height="1870" as="geometry" />
        </mxCell>
        <mxCell id="tGdVXJUMrKSxFYN3gTCC-1" value="" style="sketch=0;points=[[0,0,0],[0.25,0,0],[0.5,0,0],[0.75,0,0],[1,0,0],[0,1,0],[0.25,1,0],[0.5,1,0],[0.75,1,0],[1,1,0],[0,0.25,0],[0,0.5,0],[0,0.75,0],[1,0.25,0],[1,0.5,0],[1,0.75,0]];outlineConnect=0;fontColor=#232F3E;fillColor=#7AA116;strokeColor=#ffffff;dashed=0;verticalLabelPosition=bottom;verticalAlign=top;align=center;html=1;fontSize=12;fontStyle=0;aspect=fixed;shape=mxgraph.aws4.resourceIcon;resIcon=mxgraph.aws4.s3;" parent="tGdVXJUMrKSxFYN3gTCC-66" vertex="1">
          <mxGeometry x="140" y="1090" width="148" height="148" as="geometry" />
        </mxCell>
        <mxCell id="vOIiQllHS_iyonRRBXSb-1" value="&lt;font style=&quot;font-size: 36px;&quot;&gt;&lt;b&gt;1&lt;/b&gt;&lt;/font&gt;" style="text;strokeColor=none;align=center;fillColor=none;html=1;verticalAlign=middle;whiteSpace=wrap;rounded=0;" parent="tGdVXJUMrKSxFYN3gTCC-66" vertex="1">
          <mxGeometry x="990" y="220" width="60" height="30" as="geometry" />
        </mxCell>
        <mxCell id="vOIiQllHS_iyonRRBXSb-2" value="&lt;font style=&quot;font-size: 36px;&quot;&gt;&lt;b&gt;2&lt;/b&gt;&lt;/font&gt;" style="text;strokeColor=none;align=center;fillColor=none;html=1;verticalAlign=middle;whiteSpace=wrap;rounded=0;" parent="tGdVXJUMrKSxFYN3gTCC-66" vertex="1">
          <mxGeometry x="1210" y="790" width="60" height="30" as="geometry" />
        </mxCell>
        <mxCell id="vOIiQllHS_iyonRRBXSb-8" value="&lt;font style=&quot;font-size: 36px;&quot;&gt;&lt;b&gt;7&lt;/b&gt;&lt;/font&gt;" style="text;strokeColor=none;align=center;fillColor=none;html=1;verticalAlign=middle;whiteSpace=wrap;rounded=0;" parent="tGdVXJUMrKSxFYN3gTCC-66" vertex="1">
          <mxGeometry x="1140" y="890" width="60" height="30" as="geometry" />
        </mxCell>
        <mxCell id="vOIiQllHS_iyonRRBXSb-9" value="&lt;font style=&quot;font-size: 36px;&quot;&gt;&lt;b&gt;8&lt;/b&gt;&lt;/font&gt;" style="text;strokeColor=none;align=center;fillColor=none;html=1;verticalAlign=middle;whiteSpace=wrap;rounded=0;" parent="tGdVXJUMrKSxFYN3gTCC-66" vertex="1">
          <mxGeometry x="1510" y="880" width="60" height="30" as="geometry" />
        </mxCell>
        <mxCell id="vOIiQllHS_iyonRRBXSb-11" value="&lt;font style=&quot;font-size: 36px;&quot;&gt;&lt;b&gt;9&lt;/b&gt;&lt;/font&gt;" style="text;strokeColor=none;align=center;fillColor=none;html=1;verticalAlign=middle;whiteSpace=wrap;rounded=0;" parent="tGdVXJUMrKSxFYN3gTCC-66" vertex="1">
          <mxGeometry x="1870" y="850" width="60" height="30" as="geometry" />
        </mxCell>
        <mxCell id="vOIiQllHS_iyonRRBXSb-13" value="" style="outlineConnect=0;dashed=0;verticalLabelPosition=bottom;verticalAlign=top;align=center;html=1;shape=mxgraph.aws3.cloudwatch;fillColor=#759C3E;gradientColor=none;" parent="tGdVXJUMrKSxFYN3gTCC-66" vertex="1">
          <mxGeometry x="1105" y="510" width="130" height="140" as="geometry" />
        </mxCell>
        <mxCell id="vOIiQllHS_iyonRRBXSb-15" value="&lt;font style=&quot;font-size: 24px;&quot;&gt;&lt;b&gt;CLOUD WATCH LOGS&lt;/b&gt;&lt;/font&gt;" style="text;strokeColor=none;align=center;fillColor=none;html=1;verticalAlign=middle;whiteSpace=wrap;rounded=0;" parent="tGdVXJUMrKSxFYN3gTCC-66" vertex="1">
          <mxGeometry x="1070" y="680" width="220" height="30" as="geometry" />
        </mxCell>
        <mxCell id="vOIiQllHS_iyonRRBXSb-16" value="&lt;font style=&quot;font-size: 36px;&quot;&gt;&lt;b&gt;10&lt;/b&gt;&lt;/font&gt;" style="text;strokeColor=none;align=center;fillColor=none;html=1;verticalAlign=middle;whiteSpace=wrap;rounded=0;" parent="tGdVXJUMrKSxFYN3gTCC-66" vertex="1">
          <mxGeometry x="1200" y="480" width="60" height="30" as="geometry" />
        </mxCell>
        <mxCell id="tGdVXJUMrKSxFYN3gTCC-14" value="" style="sketch=0;points=[[0,0,0],[0.25,0,0],[0.5,0,0],[0.75,0,0],[1,0,0],[0,1,0],[0.25,1,0],[0.5,1,0],[0.75,1,0],[1,1,0],[0,0.25,0],[0,0.5,0],[0,0.75,0],[1,0.25,0],[1,0.5,0],[1,0.75,0]];outlineConnect=0;fontColor=#232F3E;fillColor=#7AA116;strokeColor=#ffffff;dashed=0;verticalLabelPosition=bottom;verticalAlign=top;align=center;html=1;fontSize=12;fontStyle=0;aspect=fixed;shape=mxgraph.aws4.resourceIcon;resIcon=mxgraph.aws4.s3;" parent="tGdVXJUMrKSxFYN3gTCC-66" vertex="1">
          <mxGeometry x="150" y="682" width="138" height="138" as="geometry" />
        </mxCell>
        <mxCell id="FjuNGTuPouY_meC3UHuL-7" value="&lt;span style=&quot;font-size: 24px;&quot;&gt;&lt;b&gt;RAW CSV FILE&lt;/b&gt;&lt;/span&gt;" style="text;strokeColor=none;align=center;fillColor=none;html=1;verticalAlign=middle;whiteSpace=wrap;rounded=0;" vertex="1" parent="tGdVXJUMrKSxFYN3gTCC-66">
          <mxGeometry x="124" y="850" width="190" height="30" as="geometry" />
        </mxCell>
        <mxCell id="FjuNGTuPouY_meC3UHuL-9" value="&lt;font style=&quot;font-size: 24px;&quot;&gt;&lt;b&gt;CONFIG JSON FILE&lt;/b&gt;&lt;/font&gt;" style="text;strokeColor=none;align=center;fillColor=none;html=1;verticalAlign=middle;whiteSpace=wrap;rounded=0;" vertex="1" parent="tGdVXJUMrKSxFYN3gTCC-66">
          <mxGeometry x="80" y="1260" width="250" height="30" as="geometry" />
        </mxCell>
        <mxCell id="FjuNGTuPouY_meC3UHuL-12" value="&lt;font style=&quot;font-size: 36px;&quot;&gt;&lt;b&gt;4&lt;/b&gt;&lt;/font&gt;" style="text;strokeColor=none;align=center;fillColor=none;html=1;verticalAlign=middle;whiteSpace=wrap;rounded=0;" vertex="1" parent="tGdVXJUMrKSxFYN3gTCC-66">
          <mxGeometry x="288" y="640" width="60" height="30" as="geometry" />
        </mxCell>
        <mxCell id="FjuNGTuPouY_meC3UHuL-14" value="&lt;font style=&quot;font-size: 36px;&quot;&gt;&lt;b&gt;5&lt;/b&gt;&lt;/font&gt;" style="text;strokeColor=none;align=center;fillColor=none;html=1;verticalAlign=middle;whiteSpace=wrap;rounded=0;" vertex="1" parent="tGdVXJUMrKSxFYN3gTCC-66">
          <mxGeometry x="300" y="1060" width="60" height="30" as="geometry" />
        </mxCell>
        <mxCell id="FjuNGTuPouY_meC3UHuL-15" value="" style="sketch=0;points=[[0,0,0],[0.25,0,0],[0.5,0,0],[0.75,0,0],[1,0,0],[0,1,0],[0.25,1,0],[0.5,1,0],[0.75,1,0],[1,1,0],[0,0.25,0],[0,0.5,0],[0,0.75,0],[1,0.25,0],[1,0.5,0],[1,0.75,0]];outlineConnect=0;fontColor=#232F3E;fillColor=#7AA116;strokeColor=#ffffff;dashed=0;verticalLabelPosition=bottom;verticalAlign=top;align=center;html=1;fontSize=12;fontStyle=0;aspect=fixed;shape=mxgraph.aws4.resourceIcon;resIcon=mxgraph.aws4.s3;" vertex="1" parent="tGdVXJUMrKSxFYN3gTCC-66">
          <mxGeometry x="726" y="1340" width="148" height="148" as="geometry" />
        </mxCell>
        <mxCell id="FjuNGTuPouY_meC3UHuL-19" value="&lt;font style=&quot;font-size: 24px;&quot;&gt;&lt;b&gt;TARGET S3 PATH&lt;/b&gt;&lt;/font&gt;" style="text;strokeColor=none;align=center;fillColor=none;html=1;verticalAlign=middle;whiteSpace=wrap;rounded=0;" vertex="1" parent="tGdVXJUMrKSxFYN3gTCC-66">
          <mxGeometry x="680" y="1510" width="260" height="30" as="geometry" />
        </mxCell>
        <mxCell id="tGdVXJUMrKSxFYN3gTCC-44" value="&lt;font style=&quot;font-size: 24px;&quot;&gt;&lt;b&gt;UPDATING GLUE CATALOG&lt;/b&gt;&lt;/font&gt;" style="text;strokeColor=none;align=center;fillColor=none;html=1;verticalAlign=middle;whiteSpace=wrap;rounded=0;" parent="tGdVXJUMrKSxFYN3gTCC-66" vertex="1">
          <mxGeometry x="1450" y="1130" width="93" height="30" as="geometry" />
        </mxCell>
        <mxCell id="FjuNGTuPouY_meC3UHuL-26" value="&lt;font style=&quot;font-size: 36px;&quot;&gt;&lt;b&gt;6&lt;/b&gt;&lt;/font&gt;" style="text;strokeColor=none;align=center;fillColor=none;html=1;verticalAlign=middle;whiteSpace=wrap;rounded=0;" vertex="1" parent="tGdVXJUMrKSxFYN3gTCC-66">
          <mxGeometry x="890" y="1300" width="40" height="50" as="geometry" />
        </mxCell>
        <mxCell id="vOIiQllHS_iyonRRBXSb-3" value="&lt;font style=&quot;font-size: 36px;&quot;&gt;&lt;b&gt;3&lt;/b&gt;&lt;/font&gt;" style="text;strokeColor=none;align=center;fillColor=none;html=1;verticalAlign=middle;whiteSpace=wrap;rounded=0;" parent="1" vertex="1">
          <mxGeometry x="1140" y="-520" width="60" height="30" as="geometry" />
        </mxCell>
        <mxCell id="vOIiQllHS_iyonRRBXSb-14" style="edgeStyle=orthogonalEdgeStyle;rounded=0;orthogonalLoop=1;jettySize=auto;html=1;exitX=0.832;exitY=0.012;exitDx=0;exitDy=0;exitPerimeter=0;" parent="1" source="tGdVXJUMrKSxFYN3gTCC-20" target="vOIiQllHS_iyonRRBXSb-13" edge="1">
          <mxGeometry relative="1" as="geometry" />
        </mxCell>
        <mxCell id="FjuNGTuPouY_meC3UHuL-2" value="" style="edgeStyle=orthogonalEdgeStyle;rounded=0;orthogonalLoop=1;jettySize=auto;html=1;" edge="1" parent="1" source="tGdVXJUMrKSxFYN3gTCC-14" target="YWBN4F0ZfOO1UBI8A1HG-11">
          <mxGeometry relative="1" as="geometry">
            <mxPoint x="1070" y="-440" as="targetPoint" />
            <Array as="points">
              <mxPoint x="930" y="-659" />
              <mxPoint x="930" y="-440" />
            </Array>
          </mxGeometry>
        </mxCell>
        <mxCell id="FjuNGTuPouY_meC3UHuL-6" value="" style="edgeStyle=orthogonalEdgeStyle;rounded=0;orthogonalLoop=1;jettySize=auto;html=1;" edge="1" parent="1" source="tGdVXJUMrKSxFYN3gTCC-1">
          <mxGeometry relative="1" as="geometry">
            <mxPoint x="1190" y="-440" as="targetPoint" />
            <Array as="points">
              <mxPoint x="930" y="-256" />
              <mxPoint x="930" y="-440" />
            </Array>
          </mxGeometry>
        </mxCell>
      </root>
    </mxGraphModel>
  </diagram>
</mxfile>
